<svg version="1.1" id="Layer_1" xmlns="http://www.w3.org/2000/svg" xmlns:xlink="http://www.w3.org/1999/xlink" x="0px" y="0px"
	 width="100%" viewBox="0 0 861 861" enable-background="new 0 0 861 861" xml:space="preserve">
<path fill="#2D92FF" opacity="1.000000" stroke="none" 
	d="
M862.000000,91.999992 
	C862.000000,94.700409 862.000000,97.400826 861.722046,100.859184 
	C861.294800,103.261337 861.014954,104.905533 861.014771,106.549751 
	C860.995972,323.299255 860.995300,540.048767 861.039612,756.798279 
	C861.039978,758.532227 861.666077,760.266113 862.000000,762.000000 
	C862.000000,764.700439 862.000000,767.400818 861.670044,770.219971 
	C860.560486,772.924377 859.420410,775.461121 859.062195,778.103882 
	C857.264221,791.368225 852.622131,803.788818 845.658325,814.919312 
	C839.783569,824.309143 832.800720,832.966919 823.296875,839.749268 
	C813.502258,846.739136 803.223572,852.010986 791.808838,855.650024 
	C791.091064,855.675171 790.556152,855.867859 790.010925,856.032043 
	C790.000610,856.003601 790.052002,856.035583 789.615967,856.022217 
	C780.628418,857.005859 772.078369,858.855835 763.525085,858.870667 
	C651.401062,859.064514 539.276367,859.124329 427.152252,858.964172 
	C311.731354,858.799316 196.310852,858.356628 80.662216,858.002991 
	C80.434235,857.970459 79.998589,857.821045 79.743011,857.617249 
	C78.633789,857.293396 77.780136,857.173340 76.958565,857.038574 
	C76.990646,857.023926 76.982254,857.093933 76.734375,856.827881 
	C75.298012,856.392700 74.109528,856.223694 72.954208,856.041809 
	C72.987373,856.028992 72.982979,856.099976 72.733566,855.833130 
	C71.290176,855.389282 70.096199,855.212158 68.674355,855.001099 
	C68.446487,854.967102 68.009964,854.819519 67.856216,854.644165 
	C67.467163,854.254578 67.194839,854.110107 66.502136,854.014526 
	C54.944576,850.485840 44.809158,844.904114 36.003963,837.317566 
	C16.365963,820.397522 6.598769,798.228638 2.921600,772.990417 
	C2.813631,772.249390 1.663964,771.660034 0.999995,771.000000 
	C1.000000,544.973145 1.000000,318.946289 1.342904,92.770889 
	C2.789480,88.118004 3.920193,83.620064 4.991964,79.108124 
	C8.832493,62.940273 15.205829,47.944973 26.255142,35.347652 
	C40.543125,19.057920 58.680756,9.311869 79.809189,4.988296 
	C84.863373,3.954042 89.955589,3.105658 95.317764,2.387077 
	C97.678772,2.401457 99.752335,2.200548 102.130051,2.000504 
	C102.632668,2.042940 102.831123,2.084511 103.362595,2.366900 
	C105.509880,2.738583 107.324150,2.983929 109.138428,2.984077 
	C324.159119,3.001608 539.179810,3.003263 754.200500,2.965063 
	C756.129639,2.964720 758.058655,2.417372 760.281860,2.063375 
	C760.776306,1.999697 760.976746,1.998052 761.484436,2.181600 
	C763.845154,2.302078 765.898621,2.237364 768.363403,2.116652 
	C770.437500,2.707375 772.053894,3.670392 773.774414,3.922794 
	C776.057251,4.257669 778.542847,3.567663 780.730835,4.132882 
	C794.457764,7.678989 807.661377,12.141687 819.452759,20.676971 
	C841.760620,36.824791 854.857788,58.208496 859.089355,85.290001 
	C859.453613,87.621346 861.001831,89.767693 862.000000,91.999992 
M410.413818,765.472717 
	C410.413818,765.472717 410.363464,765.472046 410.644989,764.759460 
	C408.393768,758.975403 403.693268,755.980225 397.990082,755.251770 
	C394.793884,754.843567 390.974701,755.771118 390.161011,760.160278 
	C390.161011,760.160278 390.251465,760.180359 389.512054,760.212402 
	C388.904022,760.712219 388.108795,761.096191 387.716736,761.729675 
	C383.535095,768.485718 388.525146,778.914001 397.896820,782.177246 
	C399.951385,784.392578 402.005981,786.607849 404.048767,789.572388 
	C406.185638,792.368469 408.032318,795.462830 410.527802,797.890198 
	C414.212708,801.474609 418.359070,804.584595 422.705566,808.020081 
	C422.956390,808.188293 423.085297,808.423401 423.140839,809.473206 
	C427.331543,815.335022 434.340302,815.499756 438.239380,809.314575 
	C439.102539,808.523254 439.965698,807.731995 441.535522,806.885925 
	C442.130005,806.619324 442.864655,806.494263 443.298218,806.065186 
	C451.396973,798.046570 459.502350,790.033203 467.472076,781.887390 
	C468.379944,780.959534 468.484833,779.246216 469.204102,777.325562 
	C470.393524,776.191345 471.582947,775.057129 473.497894,773.828247 
	C478.059143,769.216736 477.789215,764.194824 472.330933,760.824219 
	C471.861847,760.291321 471.392731,759.758484 470.858948,758.471558 
	C466.635742,753.199585 459.567780,754.147827 456.865326,760.839050 
	C456.011169,761.593750 455.157013,762.348511 453.578217,763.129761 
	C450.292175,765.782776 447.006165,768.435730 443.329437,771.404114 
	C443.197876,770.101135 443.010101,769.178528 443.026611,768.259583 
	C443.190216,759.150818 443.563232,750.042114 443.536133,740.934448 
	C443.490692,725.657898 442.996918,710.381287 443.064240,695.106262 
	C443.128998,680.403259 443.842621,665.703308 443.926788,651.000061 
	C443.974915,642.591431 443.111908,634.180054 443.070831,625.767883 
	C443.031250,617.669128 443.746216,609.567139 443.724487,601.467651 
	C443.694824,590.399109 443.156738,579.332520 443.063354,568.263245 
	C442.933899,552.917358 443.009796,537.569702 443.007294,522.222839 
	C443.002991,495.956940 442.922821,469.690674 443.051575,443.425385 
	C443.096344,434.292633 443.915680,425.162598 443.923126,416.030945 
	C443.930115,407.399841 443.191010,398.770691 443.044250,390.136200 
	C442.878113,380.362152 443.006042,370.583099 443.006104,360.806244 
	C443.006195,335.012390 443.006317,309.218536 443.006287,283.424683 
	C443.006287,254.205948 443.006104,224.987228 443.006104,195.768494 
	C443.006104,160.336655 443.006256,124.904831 443.006226,89.473000 
	C443.006195,73.474419 443.077606,57.475246 442.946716,41.477734 
	C442.919769,38.184147 443.550903,34.185776 438.367249,32.943966 
	C438.097107,32.782581 437.947906,32.545181 437.857330,31.471598 
	C436.195923,30.328522 434.654602,28.467913 432.852386,28.166290 
	C424.954529,26.844482 419.000092,33.096188 419.000031,42.314556 
	C418.998383,283.146332 418.998749,523.978088 418.998749,764.809875 
	C418.998749,766.878601 418.998779,768.947327 418.998779,771.285522 
	C416.452301,769.978699 414.605194,769.030823 412.340668,767.931763 
	C412.083649,767.741394 411.950684,767.486389 411.860596,766.514771 
	C411.388306,766.153992 410.916016,765.793152 410.413818,765.472717 
M350.812805,499.265106 
	C350.860596,497.778503 350.908356,496.291901 351.392822,494.206757 
	C351.299469,490.006866 353.138458,487.586212 357.452789,486.783325 
	C365.571198,485.272461 369.432343,480.226227 369.853394,471.931305 
	C370.187866,465.342224 370.774292,458.666779 372.248138,452.259521 
	C374.147186,444.003693 371.887115,437.996063 364.889679,432.804626 
	C365.175446,426.325500 363.222839,424.020447 355.946106,421.981628 
	C335.344055,416.209320 314.788818,410.266296 294.144684,404.649506 
	C279.117615,400.560944 263.978638,396.883759 248.938934,393.006409 
	C248.938934,393.006409 248.943771,393.057007 248.945908,392.215637 
	C248.924271,387.985138 248.339600,383.663574 249.005829,379.544312 
	C250.161896,372.396545 252.482727,365.431396 253.534668,358.274963 
	C254.073120,354.611786 256.204132,350.082458 251.076996,346.522675 
	C249.439285,345.593506 247.801590,344.664307 245.817322,343.101044 
	C234.169403,338.967072 222.439346,336.178253 210.393188,341.514191 
	C205.680038,343.601929 202.016510,342.411163 198.073029,339.236511 
	C189.143021,332.047546 180.030716,325.044006 170.601028,318.532013 
	C164.837128,314.551514 159.995026,316.095276 157.324799,322.628326 
	C154.383911,329.823547 152.267776,337.367401 150.006912,344.824432 
	C148.818954,348.742676 147.527252,352.090729 143.369751,354.133331 
	C132.761551,359.345062 122.300064,364.872284 111.931702,370.550507 
	C102.377914,375.782562 100.805077,383.652679 107.839043,391.994019 
	C112.869698,397.959717 118.565895,403.364227 124.198242,409.625641 
	C125.164261,411.043488 126.130272,412.461365 126.336426,414.040375 
	C124.279671,414.684357 122.237144,415.378662 120.163910,415.964294 
	C103.887039,420.561920 87.544655,424.944305 71.378624,429.902191 
	C68.487518,430.788849 66.318535,434.030090 63.155384,436.311798 
	C56.675259,439.261902 53.826786,442.903931 54.329315,448.030670 
	C55.200024,456.913605 56.368740,465.769440 57.115383,474.661560 
	C57.550404,479.842407 60.111946,483.168182 64.580711,485.422241 
	C68.080811,487.187775 71.497520,489.118591 74.865883,491.861481 
	C75.298340,495.904938 75.730789,499.948425 76.036308,504.843475 
	C77.665138,520.713440 79.327812,536.580078 80.914536,552.454224 
	C83.062485,573.942932 85.138367,595.438843 87.270996,616.929138 
	C89.157532,635.939453 91.507347,654.916199 92.849739,673.964294 
	C93.915955,689.093689 100.034981,699.168396 114.812248,704.931641 
	C146.102280,717.135010 176.968689,730.424622 208.250381,743.884094 
	C208.999176,744.499329 209.663895,745.282959 210.509216,745.704895 
	C227.135910,754.005371 243.816284,754.896179 260.839569,746.594543 
	C283.431671,735.577209 306.196869,724.915344 328.838531,713.998779 
	C339.339935,708.935547 349.793945,703.763916 360.140839,698.393555 
	C368.151398,694.235840 369.911682,683.554504 362.601593,679.798645 
	C352.947815,674.838684 342.296326,671.820557 331.917023,667.121704 
	C332.388489,662.673523 332.846497,658.223816 333.333649,653.777344 
	C335.500519,633.999817 337.655670,614.220947 339.853790,594.446838 
	C342.015076,575.004089 344.253845,555.569824 346.398438,536.125183 
	C347.578827,525.422668 348.635345,514.706482 350.010712,503.385376 
	C350.056671,502.728516 350.102661,502.071655 350.535309,501.095428 
	C350.547577,500.771484 350.559845,500.447510 350.812805,499.265106 
M808.537537,557.746887 
	C812.519714,555.557922 815.443176,552.627563 815.662598,547.744629 
	C816.026978,539.636963 816.341797,531.525879 816.828613,523.425354 
	C817.086548,519.133362 815.434875,516.077148 811.783142,513.284729 
	C814.077515,506.343842 816.721008,499.494904 818.579224,492.439087 
	C820.982544,483.313446 822.758972,474.022705 825.268921,464.276093 
	C826.453003,461.617371 828.187988,459.065887 828.729675,456.282135 
	C831.745239,440.784912 831.658752,425.132874 829.580383,409.570465 
	C827.645386,395.081451 823.505127,381.234161 813.857178,369.732788 
	C806.387268,360.827820 797.295044,354.643433 784.527283,353.524994 
	C771.393188,352.006653 758.313782,349.121796 744.231689,351.703369 
	C726.096497,349.479645 707.960510,347.262543 689.826294,345.030670 
	C659.493591,341.297363 629.162109,337.554626 598.221802,333.434296 
	C594.649597,332.651154 591.112793,331.560364 587.498352,331.143524 
	C577.279968,329.965149 566.962097,327.820312 556.809326,328.372345 
	C544.612122,329.035461 534.622009,336.175781 526.067688,344.597382 
	C499.606110,370.648407 489.423706,403.565948 486.908844,439.529694 
	C486.767944,441.544556 488.362457,443.680786 489.392853,446.389221 
	C492.398041,449.222717 495.365570,452.097412 498.414825,454.882660 
	C512.747131,467.974091 527.111572,481.030396 541.433411,494.133240 
	C542.827148,495.408356 544.007568,496.916626 545.498474,498.548035 
	C544.414062,499.295685 543.934509,499.748840 543.365784,500.000366 
	C529.703308,506.043457 515.960876,511.913879 502.423492,518.224487 
	C499.873596,519.413086 498.133942,522.339905 495.230347,524.644531 
	C487.670715,526.098816 485.769775,528.329712 485.871582,536.025208 
	C485.952728,542.157227 486.487885,548.294495 486.318848,554.415527 
	C486.134583,561.089661 488.942169,565.484863 494.969025,568.893616 
	C495.314789,572.898254 495.660583,576.902832 495.844849,581.843323 
	C495.938599,586.168701 495.926270,590.499451 496.143188,594.818665 
	C497.694580,625.708435 499.358368,656.592712 500.834015,687.486023 
	C501.254120,696.281006 504.526062,700.833191 513.105530,703.349854 
	C563.851624,718.235535 614.578308,733.187988 665.360718,747.948914 
	C674.552185,750.620605 683.610107,754.497864 694.180664,753.436279 
	C695.064758,753.498474 695.948853,753.560669 697.347412,754.287781 
	C710.888123,757.560791 723.475281,755.897766 735.403198,748.159973 
	C762.028687,730.887634 788.902161,713.997925 815.601868,696.839050 
	C819.910217,694.070190 824.230957,691.112915 827.863098,687.547180 
	C833.736633,681.780884 833.483154,670.665344 827.287048,666.087830 
	C819.488098,660.326172 810.853760,656.043335 800.785583,654.128662 
	C800.815857,652.312744 800.770081,650.491760 800.888550,648.681641 
	C801.890137,633.375183 802.921753,618.070679 804.263855,602.347839 
	C804.242004,601.670776 804.220154,600.993652 804.566711,599.423340 
	C804.716248,595.944092 804.865723,592.464905 805.334717,588.636047 
	C805.370911,588.482300 805.455994,588.320801 805.432983,588.176514 
	C805.385376,587.879333 805.280029,587.591309 805.574463,586.392944 
	C805.897400,581.242310 806.220337,576.091614 806.748596,570.190918 
	C807.127930,566.119385 807.507324,562.047852 808.537537,557.746887 
M110.633904,220.131607 
	C107.724541,223.112473 104.781647,226.061462 101.912292,229.080338 
	C94.352249,237.034286 94.197769,247.037262 101.722488,254.919525 
	C108.624390,262.149353 115.682701,269.233063 122.779930,276.272430 
	C131.274704,284.697906 143.177734,284.606537 151.718796,276.071075 
	C157.139374,270.654053 162.304535,264.979095 167.780304,259.620117 
	C179.907288,247.751709 192.157898,236.009613 204.609421,223.973022 
	C205.267258,224.599518 206.599442,225.815094 207.873123,227.089157 
	C224.367371,243.588837 240.833801,260.116364 257.350281,276.593750 
	C264.659119,283.885315 276.534790,284.103760 283.944794,276.931763 
	C291.487396,269.631409 298.925903,262.214111 306.184937,254.632584 
	C314.630768,245.811478 314.534424,237.136047 305.963379,228.293274 
	C298.541290,220.635880 290.935028,213.155594 283.349945,205.657959 
	C273.057465,195.484116 262.707642,185.368301 252.190994,175.039597 
	C253.892014,173.227051 254.987488,172.010483 256.134644,170.844772 
	C272.847565,153.861710 289.705933,137.018784 306.226074,119.850334 
	C314.276855,111.483543 313.976807,102.639961 305.963531,94.288681 
	C299.503510,87.556175 292.856445,81.000847 286.215088,74.445236 
	C276.840637,65.191841 265.987640,65.091805 256.771301,74.329254 
	C244.531631,86.596939 232.449448,99.021652 220.282486,111.362038 
	C214.952637,116.767876 209.580490,122.132019 203.743851,128.001511 
	C202.863724,126.844017 202.347137,125.972031 201.652176,125.278862 
	C184.664124,108.334511 167.406494,91.650436 150.768463,74.369682 
	C143.418396,66.735664 128.843094,66.967499 123.087029,72.923447 
	C115.792427,80.471367 108.181374,87.723274 101.084198,95.449509 
	C93.536514,103.666183 94.009995,113.256798 101.909081,121.191521 
	C116.135086,135.481720 130.391479,149.741837 144.676666,163.972870 
	C148.169907,167.452866 151.823776,170.771652 155.397339,174.158463 
	C140.166824,189.794891 125.642937,204.705872 110.633904,220.131607 
M773.541199,72.409935 
	C762.907532,70.285843 753.783691,72.732864 746.493286,81.117188 
	C743.328857,84.756523 740.018127,88.280411 736.615417,91.699043 
	C706.048767,122.407806 675.448486,153.083221 644.848328,183.758636 
	C643.705383,184.904343 642.461731,185.949554 640.971619,187.309357 
	C626.833679,173.410767 613.008789,159.741104 599.082581,146.175537 
	C594.689514,141.896286 590.486816,137.170929 585.386597,133.921799 
	C575.468567,127.603424 563.160706,130.338638 553.452148,140.037277 
	C540.708435,152.767990 540.634399,166.125031 553.445251,178.848190 
	C564.316833,189.645355 575.410278,200.218842 586.316040,210.981964 
	C598.651489,223.156006 610.862122,235.456329 623.173645,247.654770 
	C633.842896,258.226044 647.387207,258.146240 658.093750,247.516800 
	C662.114685,243.524841 666.110840,239.507919 670.114868,235.499008 
	C709.566284,195.999237 749.024292,156.506012 788.462097,116.992676 
	C796.974060,108.464455 798.841919,97.156197 791.702454,88.089439 
	C786.990967,82.106133 780.179688,77.776352 773.541199,72.409935 
z"/>
<path fill="#000000" opacity="1.000000" stroke="none" 
	d="
M862.000000,91.531334 
	C861.001831,89.767693 859.453613,87.621346 859.089355,85.290001 
	C854.857788,58.208496 841.760620,36.824791 819.452759,20.676971 
	C807.661377,12.141687 794.457764,7.678989 780.730835,4.132882 
	C778.542847,3.567663 776.057251,4.257669 773.774414,3.922794 
	C772.053894,3.670392 770.437500,2.707375 768.109131,1.812597 
	C767.628967,1.376360 767.814514,1.188180 768.000000,1.000000 
	C799.259094,1.000000 830.518127,1.000000 862.000000,1.000000 
	C862.000000,31.020527 862.000000,61.041607 862.000000,91.531334 
z"/>
<path fill="#000000" opacity="1.000000" stroke="none" 
	d="
M95.030319,2.171789 
	C89.955589,3.105658 84.863373,3.954042 79.809189,4.988296 
	C58.680756,9.311869 40.543125,19.057920 26.255142,35.347652 
	C15.205829,47.944973 8.832493,62.940273 4.991964,79.108124 
	C3.920193,83.620064 2.789480,88.118004 1.342904,92.311188 
	C1.000000,61.738560 1.000000,31.477121 1.000000,1.000000 
	C32.020561,1.000000 63.041622,1.000000 94.808006,1.285985 
	C95.378990,1.771910 95.204659,1.971850 95.030319,2.171789 
z"/>
<path fill="#000000" opacity="1.000000" stroke="none" 
	d="
M791.991699,855.817505 
	C803.223572,852.010986 813.502258,846.739136 823.296875,839.749268 
	C832.800720,832.966919 839.783569,824.309143 845.658325,814.919312 
	C852.622131,803.788818 857.264221,791.368225 859.062195,778.103882 
	C859.420410,775.461121 860.560486,772.924377 861.670044,770.669373 
	C862.000000,801.260620 862.000000,831.521301 862.000000,862.000000 
	C831.646118,862.000000 801.291748,862.000000 770.200073,861.626038 
	C770.622620,860.834473 771.755371,860.304016 772.946838,860.018555 
	C778.639832,858.654480 784.348755,857.356812 790.052002,856.035583 
	C790.052002,856.035583 790.000610,856.003601 790.341797,856.003601 
	C791.119202,855.941589 791.555481,855.879578 791.991699,855.817505 
z"/>
<path fill="#000000" opacity="1.000000" stroke="none" 
	d="
M68.009964,854.819519 
	C68.009964,854.819519 68.446487,854.967102 68.855362,855.330688 
	C70.503822,855.829529 71.743401,855.964783 72.982971,856.099976 
	C72.982979,856.099976 72.987373,856.028992 73.131790,856.370850 
	C74.511551,856.839783 75.746902,856.966858 76.982254,857.093933 
	C76.982254,857.093933 76.990646,857.023926 77.115250,857.354675 
	C78.159431,857.730652 79.079010,857.775879 79.998589,857.821045 
	C79.998589,857.821045 80.434235,857.970459 80.872086,858.355103 
	C84.451012,859.173279 87.607414,859.526245 90.718285,860.118347 
	C91.245811,860.218750 91.577713,861.346741 92.000000,862.000000 
	C61.739750,862.000000 31.479504,862.000000 1.000000,862.000000 
	C1.000000,831.979431 1.000000,801.958374 0.999995,771.468628 
	C1.663964,771.660034 2.813631,772.249390 2.921600,772.990417 
	C6.598769,798.228638 16.365963,820.397522 36.003963,837.317566 
	C44.809158,844.904114 54.944576,850.485840 66.597069,854.265869 
	C67.386894,854.631897 67.698433,854.725708 68.009964,854.819519 
z"/>
<path fill="#228BFC" opacity="1.000000" stroke="none" 
	d="
M92.454102,862.000000 
	C91.577713,861.346741 91.245811,860.218750 90.718285,860.118347 
	C87.607414,859.526245 84.451012,859.173279 81.100067,858.387634 
	C196.310852,858.356628 311.731354,858.799316 427.152252,858.964172 
	C539.276367,859.124329 651.401062,859.064514 763.525085,858.870667 
	C772.078369,858.855835 780.628418,857.005859 789.615967,856.022217 
	C784.348755,857.356812 778.639832,858.654480 772.946838,860.018555 
	C771.755371,860.304016 770.622620,860.834473 769.731384,861.626038 
	C767.299988,862.000000 764.599976,862.000000 761.239136,861.627808 
	C743.431641,861.167419 726.285034,861.003845 709.138428,861.002502 
	C508.269806,860.987244 307.401184,860.994141 106.532570,861.040344 
	C105.021637,861.040710 103.510849,861.666321 102.000000,862.000000 
	C98.969406,862.000000 95.938812,862.000000 92.454102,862.000000 
z"/>
<path fill="#3689D9" opacity="1.000000" stroke="none" 
	d="
M862.000000,761.531372 
	C861.666077,760.266113 861.039978,758.532227 861.039612,756.798279 
	C860.995300,540.048767 860.995972,323.299255 861.014771,106.549751 
	C861.014954,104.905533 861.294800,103.261337 861.722046,101.308563 
	C862.000000,321.020905 862.000000,541.041809 862.000000,761.531372 
z"/>
<path fill="#ABCB6D" opacity="1.000000" stroke="none" 
	d="
M102.466980,862.000000 
	C103.510849,861.666321 105.021637,861.040710 106.532570,861.040344 
	C307.401184,860.994141 508.269806,860.987244 709.138428,861.002502 
	C726.285034,861.003845 743.431641,861.167419 760.789124,861.627808 
	C541.644653,862.000000 322.289307,862.000000 102.466980,862.000000 
z"/>
<path fill="#99AE80" opacity="1.000000" stroke="none" 
	d="
M761.177124,1.996408 
	C760.976746,1.998052 760.776306,1.999697 759.814514,2.015174 
	C587.842712,2.018854 416.632355,1.999081 245.421967,2.004780 
	C197.957840,2.006360 150.493713,2.083570 103.029587,2.126081 
	C102.831123,2.084511 102.632668,2.042940 102.061615,1.731252 
	C101.792671,1.307423 101.896332,1.153711 102.000000,1.000000 
	C321.360199,1.000000 540.720398,1.000000 760.697021,1.229110 
	C761.268005,1.637615 761.222595,1.817011 761.177124,1.996408 
z"/>
<path fill="#117FFF" opacity="1.000000" stroke="none" 
	d="
M101.562500,1.000000 
	C101.896332,1.153711 101.792671,1.307423 101.757462,1.730386 
	C99.752335,2.200548 97.678772,2.401457 95.317764,2.387078 
	C95.204659,1.971850 95.378990,1.771910 95.276665,1.285985 
	C97.041664,1.000000 99.083336,1.000000 101.562500,1.000000 
z"/>
<path fill="#117FFF" opacity="1.000000" stroke="none" 
	d="
M761.484436,2.181600 
	C761.222595,1.817011 761.268005,1.637615 761.156738,1.229110 
	C763.041687,1.000000 765.083313,1.000000 767.562500,1.000000 
	C767.814514,1.188180 767.628967,1.376360 767.697754,1.868595 
	C765.898621,2.237364 763.845154,2.302078 761.484436,2.181600 
z"/>
<path fill="#FE4A29" opacity="1.000000" stroke="none" 
	d="
M110.876480,219.874222 
	C125.642937,204.705872 140.166824,189.794891 155.397339,174.158463 
	C151.823776,170.771652 148.169907,167.452866 144.676666,163.972870 
	C130.391479,149.741837 116.135086,135.481720 101.909081,121.191521 
	C94.009995,113.256798 93.536514,103.666183 101.084198,95.449509 
	C108.181374,87.723274 115.792427,80.471367 123.087029,72.923447 
	C128.843094,66.967499 143.418396,66.735664 150.768463,74.369682 
	C167.406494,91.650436 184.664124,108.334511 201.652176,125.278862 
	C202.347137,125.972031 202.863724,126.844017 203.743851,128.001511 
	C209.580490,122.132019 214.952637,116.767876 220.282486,111.362038 
	C232.449448,99.021652 244.531631,86.596939 256.771301,74.329254 
	C265.987640,65.091805 276.840637,65.191841 286.215088,74.445236 
	C292.856445,81.000847 299.503510,87.556175 305.963531,94.288681 
	C313.976807,102.639961 314.276855,111.483543 306.226074,119.850334 
	C289.705933,137.018784 272.847565,153.861710 256.134644,170.844772 
	C254.987488,172.010483 253.892014,173.227051 252.190994,175.039597 
	C262.707642,185.368301 273.057465,195.484116 283.349945,205.657959 
	C290.935028,213.155594 298.541290,220.635880 305.963379,228.293274 
	C314.534424,237.136047 314.630768,245.811478 306.184937,254.632584 
	C298.925903,262.214111 291.487396,269.631409 283.944794,276.931763 
	C276.534790,284.103760 264.659119,283.885315 257.350281,276.593750 
	C240.833801,260.116364 224.367371,243.588837 207.873123,227.089157 
	C206.599442,225.815094 205.267258,224.599518 204.609421,223.973022 
	C192.157898,236.009613 179.907288,247.751709 167.780304,259.620117 
	C162.304535,264.979095 157.139374,270.654053 151.718796,276.071075 
	C143.177734,284.606537 131.274704,284.697906 122.779930,276.272430 
	C115.682701,269.233063 108.624390,262.149353 101.722488,254.919525 
	C94.197769,247.037262 94.352249,237.034286 101.912292,229.080338 
	C104.781647,226.061462 107.724541,223.112473 110.876480,219.874222 
z"/>
<path fill="#FFD10E" opacity="1.000000" stroke="none" 
	d="
M208.008850,743.268799 
	C176.968689,730.424622 146.102280,717.135010 114.812248,704.931641 
	C100.034981,699.168396 93.915955,689.093689 92.849739,673.964294 
	C91.507347,654.916199 89.157532,635.939453 87.270996,616.929138 
	C85.138367,595.438843 83.062485,573.942932 80.914536,552.454224 
	C79.327812,536.580078 77.665138,520.713440 76.449142,504.479767 
	C81.194412,505.780121 85.490128,507.548340 89.865395,509.090881 
	C113.790901,517.526184 137.697891,526.016663 161.686859,534.268250 
	C179.394516,540.359253 197.217850,546.113953 214.994568,552.485229 
	C215.014038,558.630005 215.028595,564.307922 215.034943,570.323853 
	C215.032059,571.112366 215.037384,571.562927 215.030533,572.472534 
	C215.026062,576.616821 215.033752,580.302063 215.028961,584.456665 
	C214.677902,637.672363 214.339355,690.418701 213.589539,743.292847 
	C211.455124,743.369934 209.731995,743.319336 208.008850,743.268799 
z"/>
<path fill="#FEAC08" opacity="1.000000" stroke="none" 
	d="
M214.000809,743.165100 
	C214.339355,690.418701 214.677902,637.672363 215.369522,584.367676 
	C218.436386,579.762695 218.176514,575.254028 215.042694,572.013550 
	C215.037384,571.562927 215.032059,571.112366 215.396805,570.209106 
	C216.512497,565.453064 217.164444,561.130188 218.057251,556.857605 
	C218.348755,555.462646 219.267578,554.198730 219.899521,552.874817 
	C220.506149,552.918579 221.112762,552.962280 221.719391,553.005981 
	C220.680710,557.106445 221.086533,559.712830 225.795273,558.478027 
	C226.475113,558.299622 227.428802,559.427429 228.328110,559.747559 
	C229.159180,560.043335 230.087402,560.066162 230.972839,560.209290 
	C230.990250,559.322327 231.345734,558.240723 230.966537,557.582092 
	C229.329102,554.738464 230.637115,553.473694 233.220688,552.271912 
	C233.894684,554.868835 233.825974,557.656494 235.185822,559.037537 
	C236.735580,560.611450 239.559204,560.930908 241.829224,561.795593 
	C242.356674,560.168030 242.884125,558.540466 243.186157,557.608521 
	C240.437454,556.885742 238.849442,556.468201 237.261429,556.050537 
	C238.522430,554.760193 239.672287,553.328003 241.079971,552.224731 
	C242.192947,551.352539 243.899857,551.156067 244.855179,550.181396 
	C246.968613,548.025146 248.725479,547.946960 251.395157,549.504944 
	C257.429199,553.026245 263.077240,551.511292 266.926270,546.073486 
	C267.489960,545.277161 269.035126,545.248901 269.954773,544.616150 
	C272.005920,543.204834 275.545074,541.734985 275.645599,540.113342 
	C275.990662,534.549072 280.182037,533.400330 283.624908,530.944397 
	C287.176331,535.490051 291.332214,536.603271 296.531799,534.230591 
	C296.171387,533.087646 295.809906,531.941223 295.566620,531.169617 
	C297.469696,530.497498 299.693756,530.420410 300.479919,529.317932 
	C305.141510,522.780945 308.561127,521.526062 314.938416,524.494446 
	C315.694305,522.931030 316.061951,520.481567 317.267334,519.956970 
	C324.124420,516.972534 331.220825,514.544250 338.155029,511.727936 
	C341.966675,510.179871 347.997650,511.416992 347.923279,504.484070 
	C347.921600,504.328094 349.112854,504.159271 349.747681,503.996460 
	C348.635345,514.706482 347.578827,525.422668 346.398438,536.125183 
	C344.253845,555.569824 342.015076,575.004089 339.853790,594.446838 
	C337.655670,614.220947 335.500519,633.999817 333.333649,653.777344 
	C332.846497,658.223816 332.388489,662.673523 331.906586,667.957153 
	C331.560089,671.588806 331.198608,674.382080 330.892578,677.181519 
	C329.844421,686.769409 325.369568,694.156372 316.652252,698.525757 
	C289.226227,712.272827 261.768585,725.957520 234.265640,739.549988 
	C227.926514,742.682922 221.154358,744.197388 214.000809,743.165100 
z"/>
<path fill="#0348FF" opacity="1.000000" stroke="none" 
	d="
M773.924866,72.558083 
	C780.179688,77.776352 786.990967,82.106133 791.702454,88.089439 
	C798.841919,97.156197 796.974060,108.464455 788.462097,116.992676 
	C749.024292,156.506012 709.566284,195.999237 670.114868,235.499008 
	C666.110840,239.507919 662.114685,243.524841 658.093750,247.516800 
	C647.387207,258.146240 633.842896,258.226044 623.173645,247.654770 
	C610.862122,235.456329 598.651489,223.156006 586.316040,210.981964 
	C575.410278,200.218842 564.316833,189.645355 553.445251,178.848190 
	C540.634399,166.125031 540.708435,152.767990 553.452148,140.037277 
	C563.160706,130.338638 575.468567,127.603424 585.386597,133.921799 
	C590.486816,137.170929 594.689514,141.896286 599.082581,146.175537 
	C613.008789,159.741104 626.833679,173.410767 640.971619,187.309357 
	C642.461731,185.949554 643.705383,184.904343 644.848328,183.758636 
	C675.448486,153.083221 706.048767,122.407806 736.615417,91.699043 
	C740.018127,88.280411 743.328857,84.756523 746.493286,81.117188 
	C753.783691,72.732864 762.907532,70.285843 773.924866,72.558083 
z"/>
<path fill="#FDF8CA" opacity="1.000000" stroke="none" 
	d="
M437.919647,32.231773 
	C437.947906,32.545181 438.097107,32.782581 438.714325,33.371735 
	C439.701660,36.648735 440.891083,39.496330 440.899567,42.347443 
	C441.023163,83.821533 440.991699,125.296104 440.991455,166.770554 
	C440.990173,367.979980 440.987152,569.189392 440.984772,770.398804 
	C440.984741,772.258423 440.984772,774.118103 440.984772,776.904663 
	C442.573120,775.700195 443.153656,775.382263 443.576691,774.920105 
	C447.168335,770.996033 450.731262,767.045654 454.302826,763.103210 
	C455.157013,762.348511 456.011169,761.593750 457.313965,760.423950 
	C461.947845,756.357300 466.371399,756.710327 470.923615,759.225586 
	C471.392731,759.758484 471.861847,760.291321 472.682465,761.303101 
	C475.789154,765.890198 475.126678,769.924744 472.772369,773.922913 
	C471.582947,775.057129 470.393524,776.191345 468.785950,777.767761 
	C459.188110,787.786865 450.008484,797.363770 440.828857,806.940674 
	C439.965698,807.731995 439.102539,808.523254 437.688446,809.683838 
	C432.182770,812.497986 427.502289,812.041992 423.092224,808.725342 
	C423.085297,808.423401 422.956390,808.188293 422.361115,807.648193 
	C416.031281,801.125305 410.045929,794.974243 404.060577,788.823181 
	C402.005981,786.607849 399.951385,784.392578 397.463196,781.723755 
	C395.540924,779.708618 394.060242,778.139221 392.562195,776.586609 
	C386.846344,770.662659 386.383881,767.398071 390.251465,760.180359 
	C390.251465,760.180359 390.161011,760.160278 390.502716,760.056641 
	C396.947662,756.072449 401.158569,756.463501 406.171082,761.374573 
	C407.566895,762.742004 408.965912,764.106323 410.363464,765.472046 
	C410.363464,765.472046 410.413818,765.472717 410.521027,765.735107 
	C411.066101,766.387207 411.503998,766.776917 411.941833,767.166687 
	C411.950684,767.486389 412.083649,767.741394 412.683960,768.321960 
	C415.340546,771.183228 417.653870,773.654358 420.971741,777.198486 
	C420.971741,773.749207 420.971802,771.818481 420.971771,769.887695 
	C420.970428,527.560486 421.023804,285.233185 420.759064,42.906269 
	C420.748901,33.606915 428.299500,26.188850 437.919647,32.231773 
z"/>
<path fill="#FDD20F" opacity="1.000000" stroke="none" 
	d="
M745.006042,351.943481 
	C758.313782,349.121796 771.393188,352.006653 784.529907,353.855652 
	C780.591492,355.409668 776.363403,356.080414 772.759216,357.952301 
	C757.306702,365.977722 747.011047,379.006897 738.995117,394.056915 
	C729.692017,411.523529 723.856934,430.192078 721.244446,449.720978 
	C719.963379,459.297028 720.349609,469.096100 719.576538,478.887207 
	C686.552917,474.549683 653.916748,470.241333 621.320251,465.651489 
	C593.331970,461.710571 565.381409,457.498718 537.428955,453.308228 
	C521.320557,450.893372 505.241486,448.282959 489.149231,445.760559 
	C488.362457,443.680786 486.767944,441.544556 486.908844,439.529694 
	C489.423706,403.565948 499.606110,370.648407 526.067688,344.597382 
	C534.622009,336.175781 544.612122,329.035461 556.809326,328.372345 
	C566.962097,327.820312 577.279968,329.965149 587.498352,331.143524 
	C591.112793,331.560364 594.649597,332.651154 598.106689,333.644165 
	C588.355774,334.287292 579.098206,336.427094 570.848816,341.448822 
	C544.135681,357.710144 530.124878,382.730957 522.898315,412.231079 
	C521.525940,417.833344 522.717773,419.139282 528.633606,420.097198 
	C578.395447,428.154449 628.156982,436.213531 677.916565,444.284973 
	C686.993530,445.757355 688.718384,444.352661 689.410095,434.642151 
	C692.110352,425.272766 694.599304,416.200745 697.348755,406.896912 
	C699.243835,403.076141 700.878235,399.487122 702.737671,395.697968 
	C708.410889,387.172333 713.683289,378.723633 719.390625,370.579742 
	C721.806213,367.132935 725.136353,364.326935 728.407898,361.163757 
	C734.178711,358.046417 739.592346,354.994934 745.006042,351.943481 
z"/>
<path fill="#0649FC" opacity="1.000000" stroke="none" 
	d="
M489.271057,446.074890 
	C505.241486,448.282959 521.320557,450.893372 537.428955,453.308228 
	C565.381409,457.498718 593.331970,461.710571 621.320251,465.651489 
	C653.916748,470.241333 686.552917,474.549683 720.015381,479.032928 
	C730.105347,478.479462 739.446960,478.510284 748.579956,477.145294 
	C774.034729,473.340942 799.402893,468.957733 824.805298,464.803040 
	C822.758972,474.022705 820.982544,483.313446 818.579224,492.439087 
	C816.721008,499.494904 814.077515,506.343842 811.429016,513.795044 
	C809.677368,514.822876 808.200500,515.190125 806.894226,515.880310 
	C788.048035,525.837952 769.224854,535.839111 750.277222,545.546753 
	C750.007324,545.125488 749.856445,544.987183 749.764038,544.399963 
	C749.872070,541.957581 749.700500,539.928955 750.010803,537.976929 
	C751.154785,530.779419 749.633728,525.891052 739.440186,523.287964 
	C732.587158,521.537964 725.070679,522.385864 717.843018,521.699341 
	C717.743164,520.842529 717.651367,520.357971 717.650879,519.477905 
	C717.685669,517.718750 717.629150,516.355103 717.668762,514.616089 
	C717.698608,513.474426 717.632324,512.708008 717.649170,511.682495 
	C717.478699,510.979614 717.225159,510.535828 716.917542,509.749023 
	C713.305115,507.078094 710.026978,503.964294 706.133545,502.576294 
	C696.243164,499.050385 685.942932,498.712372 675.559448,500.463409 
	C661.469360,502.839630 658.093140,506.964508 658.933228,521.324524 
	C658.874451,522.026917 658.912048,522.435486 658.608032,522.999146 
	C657.788696,523.094849 657.311157,523.035339 656.846680,522.521362 
	C656.786926,519.030396 656.713989,515.993896 656.721191,512.739258 
	C656.801331,512.521057 656.635925,512.086670 656.728760,511.669464 
	C656.753296,510.119995 656.685120,508.987701 656.701904,507.579193 
	C656.722839,506.927795 656.658691,506.552673 656.692322,505.722290 
	C656.735901,502.490479 656.681702,499.713898 656.717773,496.515594 
	C657.709656,489.776520 655.753723,484.989960 649.473694,482.598450 
	C635.499573,477.276917 621.276428,476.528076 607.084961,481.284027 
	C598.821716,484.053284 597.402039,487.015778 597.966003,496.360321 
	C597.890259,498.204895 597.907532,499.631409 597.532349,501.182678 
	C584.155396,497.189453 571.022949,496.328064 558.049622,500.836823 
	C550.309753,503.526733 546.698059,506.484070 547.828308,515.446777 
	C548.096558,517.573853 547.986450,519.748657 547.968201,522.199951 
	C547.940796,522.697327 547.995483,522.896301 547.961243,523.538208 
	C547.937012,527.622131 548.001709,531.263123 547.976318,535.251831 
	C547.696899,536.279236 547.507629,536.959045 546.990479,537.531494 
	C537.808289,535.435059 528.904663,533.640320 520.114502,531.400085 
	C512.019714,529.337097 504.046936,526.795410 496.020416,524.464661 
	C498.133942,522.339905 499.873596,519.413086 502.423492,518.224487 
	C515.960876,511.913879 529.703308,506.043457 543.365784,500.000366 
	C543.934509,499.748840 544.414062,499.295685 545.498474,498.548035 
	C544.007568,496.916626 542.827148,495.408356 541.433411,494.133240 
	C527.111572,481.030396 512.747131,467.974091 498.414825,454.882660 
	C495.365570,452.097412 492.398041,449.222717 489.271057,446.074890 
z"/>
<path fill="#FED10E" opacity="1.000000" stroke="none" 
	d="
M693.579834,753.139832 
	C683.610107,754.497864 674.552185,750.620605 665.360718,747.948914 
	C614.578308,733.187988 563.851624,718.235535 513.105530,703.349854 
	C504.526062,700.833191 501.254120,696.281006 500.834015,687.486023 
	C499.358368,656.592712 497.694580,625.708435 496.143188,594.818665 
	C495.926270,590.499451 495.938599,586.168701 496.311035,581.459351 
	C505.393250,583.073120 514.009277,585.070862 522.726440,587.523804 
	C523.215454,596.987244 523.603455,605.995361 523.950684,615.378235 
	C523.955261,616.504028 524.000488,617.255127 524.008362,618.471680 
	C524.325134,626.951294 524.679199,634.965515 524.993530,643.317261 
	C524.987549,644.105957 525.021240,644.557068 525.011719,645.474060 
	C524.969177,650.745117 524.364075,655.652649 525.154053,660.324280 
	C525.840637,664.384521 523.914612,669.546936 529.153076,672.520752 
	C530.245178,672.859192 531.072205,673.022400 532.174500,673.361694 
	C533.301331,673.704407 534.152771,673.871094 535.333801,674.208374 
	C577.330811,685.632935 618.994568,696.900696 660.669189,708.128174 
	C668.265930,710.174927 669.854248,708.845093 669.709656,700.879944 
	C669.694641,700.052307 669.573608,699.226685 669.629578,697.908752 
	C669.799683,686.912720 669.841858,676.408020 669.886719,665.451538 
	C669.864319,661.394043 669.839294,657.788269 669.865051,653.700867 
	C669.951172,643.155090 669.986572,633.091003 670.439697,623.012024 
	C680.234253,625.000549 689.611084,627.003967 698.992065,629.475525 
	C698.667542,642.720520 698.260010,655.495850 698.027405,668.274353 
	C697.622192,690.532593 697.370605,712.793640 696.946960,735.051453 
	C696.852539,740.013611 696.444641,744.982544 695.878723,749.913635 
	C695.746887,751.061890 694.379028,752.068237 693.579834,753.139832 
z"/>
<path fill="#FFD10E" opacity="1.000000" stroke="none" 
	d="
M495.625366,524.554565 
	C504.046936,526.795410 512.019714,529.337097 520.114502,531.400085 
	C528.904663,533.640320 537.808289,535.435059 547.436035,537.626343 
	C565.376038,541.692871 582.547363,545.536316 599.707947,549.426636 
	C621.892029,554.455811 644.034973,559.672546 666.260376,564.511169 
	C677.758484,567.014465 689.396423,568.875610 700.978638,571.493530 
	C700.662903,585.309998 700.339722,598.659912 699.679504,612.164490 
	C696.801147,612.598816 694.181274,613.415527 691.733154,613.057434 
	C684.404297,611.985168 677.142639,610.453308 669.488892,608.998413 
	C655.872070,605.631531 642.621704,602.365051 629.370117,599.103516 
	C622.333435,597.371582 622.107727,597.343018 621.093323,604.382812 
	C619.267212,617.055725 613.681152,626.695679 600.487915,630.983398 
	C588.512451,633.488342 578.905334,630.069580 570.876587,621.527527 
	C565.106567,615.388550 563.377625,607.649963 561.866943,599.348633 
	C561.915466,595.595337 561.782227,592.286011 561.956604,588.992859 
	C562.142822,585.477600 560.806030,583.340698 557.293030,582.546021 
	C546.195007,580.035583 535.109802,577.468628 523.847168,574.779053 
	C523.246704,574.534973 522.818787,574.435303 521.970215,574.244751 
	C512.697815,572.099548 503.846039,570.045349 494.994232,567.991150 
	C488.942169,565.484863 486.134583,561.089661 486.318848,554.415527 
	C486.487885,548.294495 485.952728,542.157227 485.871582,536.025208 
	C485.769775,528.329712 487.670715,526.098816 495.625366,524.554565 
M601.508850,606.864929 
	C602.332764,600.148499 600.574707,594.302246 595.398499,589.787659 
	C588.504944,583.775146 579.649048,586.522034 578.033142,595.443115 
	C577.316040,599.402405 577.430420,603.766235 578.294922,607.698425 
	C579.583008,613.556519 586.472961,618.137573 592.203247,617.895081 
	C596.939819,617.694641 599.626038,614.682190 601.508850,606.864929 
z"/>
<path fill="#0649FD" opacity="1.000000" stroke="none" 
	d="
M63.816128,436.184143 
	C66.318535,434.030090 68.487518,430.788849 71.378624,429.902191 
	C87.544655,424.944305 103.887039,420.561920 120.163910,415.964294 
	C122.237144,415.378662 124.279671,414.684357 126.954346,414.183350 
	C127.852982,414.908478 128.133698,415.490601 128.469391,416.471405 
	C128.298904,423.448669 127.838493,430.031799 127.965164,436.603638 
	C128.014847,439.180939 129.379715,441.732910 130.221344,444.616272 
	C132.568741,446.263184 134.690018,448.062408 137.136185,448.841522 
	C154.566864,454.393280 172.025162,459.866760 189.557404,465.087311 
	C197.413330,467.426514 203.004562,464.857483 207.148071,457.648407 
	C209.133575,454.193939 211.017303,450.660706 212.652023,447.030243 
	C214.558380,442.796539 217.656464,440.219879 221.976807,438.648560 
	C233.074188,434.612518 244.141769,430.487030 255.143524,426.197906 
	C264.860870,422.409515 266.718994,415.100098 260.208496,406.929413 
	C256.484100,402.255280 252.665665,397.656097 248.889572,393.023193 
	C263.978638,396.883759 279.117615,400.560944 294.144684,404.649506 
	C314.788818,410.266296 335.344055,416.209320 355.946106,421.981628 
	C363.222839,424.020447 365.175446,426.325500 364.552704,433.382385 
	C361.893646,435.225464 359.690125,436.820343 357.231079,437.704926 
	C333.133911,446.373413 309.014526,454.981415 284.859497,463.487488 
	C268.249969,469.336456 251.574265,474.997559 234.531586,480.686249 
	C221.203339,485.405701 208.417694,484.224396 195.461411,480.323059 
	C164.233841,470.920074 132.903290,461.859436 101.631813,452.601593 
	C91.901924,449.721100 82.152634,446.869446 72.567581,443.555298 
	C68.949974,442.304474 63.978371,441.871002 63.816128,436.184143 
z"/>
<path fill="#FED20F" opacity="1.000000" stroke="none" 
	d="
M63.485756,436.247986 
	C63.978371,441.871002 68.949974,442.304474 72.567581,443.555298 
	C82.152634,446.869446 91.901924,449.721100 101.631813,452.601593 
	C132.903290,461.859436 164.233841,470.920074 195.461411,480.323059 
	C208.417694,484.224396 221.203339,485.405701 234.534668,481.123474 
	C233.938660,497.390137 232.943008,513.163269 231.606766,529.106018 
	C225.845932,530.189819 220.425690,531.104004 214.601624,531.992615 
	C198.576492,527.513977 182.871902,523.331055 167.352264,518.548035 
	C139.948517,510.102448 112.673080,501.241150 85.298866,492.698242 
	C81.992531,491.666412 78.407265,491.528320 74.951271,490.975983 
	C71.497520,489.118591 68.080811,487.187775 64.580711,485.422241 
	C60.111946,483.168182 57.550404,479.842407 57.115383,474.661560 
	C56.368740,465.769440 55.200024,456.913605 54.329315,448.030670 
	C53.826786,442.903931 56.675259,439.261902 63.485756,436.247986 
z"/>
<path fill="#FEF7C8" opacity="1.000000" stroke="none" 
	d="
M123.965149,409.019104 
	C118.565895,403.364227 112.869698,397.959717 107.839043,391.994019 
	C100.805077,383.652679 102.377914,375.782562 111.931702,370.550507 
	C122.300064,364.872284 132.761551,359.345062 143.369751,354.133331 
	C147.527252,352.090729 148.818954,348.742676 150.006912,344.824432 
	C152.267776,337.367401 154.383911,329.823547 157.324799,322.628326 
	C159.995026,316.095276 164.837128,314.551514 170.601028,318.532013 
	C180.030716,325.044006 189.143021,332.047546 198.073029,339.236511 
	C202.016510,342.411163 205.680038,343.601929 210.393188,341.514191 
	C222.439346,336.178253 234.169403,338.967072 245.926208,343.779907 
	C245.180161,345.417511 244.341751,346.391663 243.467514,347.332489 
	C239.099304,352.033478 234.103912,356.295929 230.476242,361.510651 
	C222.985260,372.278778 216.183884,383.528992 209.174255,394.628540 
	C205.577682,400.323639 201.559647,401.405579 195.606506,398.507629 
	C187.395157,394.510498 179.095520,390.688782 170.765747,386.942993 
	C165.553894,384.599304 161.789200,386.342438 160.956314,392.029388 
	C160.482498,395.264648 161.058640,398.937958 162.154343,402.066376 
	C165.667618,412.097565 169.917130,421.876953 173.229156,431.967957 
	C173.965622,434.211823 172.745575,438.008026 171.057632,439.800934 
	C170.020981,440.902008 165.952133,440.302246 163.996353,439.169128 
	C157.973923,435.679779 152.193161,431.731995 146.548294,427.644958 
	C141.736618,424.161133 137.921844,419.697113 137.093491,413.534821 
	C136.141510,406.452820 136.158020,406.327820 129.250656,407.741547 
	C127.476006,408.104767 125.726311,408.589966 123.965149,409.019104 
z"/>
<path fill="#FDB509" opacity="1.000000" stroke="none" 
	d="
M825.037109,464.539551 
	C799.402893,468.957733 774.034729,473.340942 748.579956,477.145294 
	C739.446960,478.510284 730.105347,478.479462 720.420105,478.939941 
	C720.349609,469.096100 719.963379,459.297028 721.244446,449.720978 
	C723.856934,430.192078 729.692017,411.523529 738.995117,394.056915 
	C747.011047,379.006897 757.306702,365.977722 772.759216,357.952301 
	C776.363403,356.080414 780.591492,355.409668 784.899292,354.016663 
	C797.295044,354.643433 806.387268,360.827820 813.857178,369.732788 
	C823.505127,381.234161 827.645386,395.081451 829.580383,409.570465 
	C831.658752,425.132874 831.745239,440.784912 828.729675,456.282135 
	C828.187988,459.065887 826.453003,461.617371 825.037109,464.539551 
M778.376648,388.403625 
	C775.574402,389.827789 772.423401,390.818207 770.025818,392.745697 
	C752.990784,406.440826 746.312988,425.501129 743.182434,446.183350 
	C742.535706,450.456116 745.373352,452.395264 749.918762,451.718506 
	C753.531982,451.180511 757.122131,450.488220 760.733032,449.932678 
	C774.031494,447.886871 787.333191,445.861786 800.636230,443.845947 
	C804.692566,443.231293 807.618896,441.297424 807.842041,436.916748 
	C808.420166,425.565704 808.155945,414.266479 803.965881,403.473969 
	C800.364807,394.198364 792.772949,385.739624 778.376648,388.403625 
z"/>
<path fill="#FEB509" opacity="1.000000" stroke="none" 
	d="
M693.880249,753.288086 
	C694.379028,752.068237 695.746887,751.061890 695.878723,749.913635 
	C696.444641,744.982544 696.852539,740.013611 696.946960,735.051453 
	C697.370605,712.793640 697.622192,690.532593 698.027405,668.274353 
	C698.260010,655.495850 698.667542,642.720520 699.348755,629.422119 
	C706.228394,625.590942 712.755615,622.281311 719.280762,619.443237 
	C718.565369,643.040588 717.823792,666.165588 717.169495,689.292969 
	C717.072266,692.727783 717.386353,696.174194 717.532471,700.233337 
	C719.396973,699.444275 720.045105,699.274353 720.579529,698.928650 
	C738.057922,687.623840 755.585022,676.391907 772.909485,664.855591 
	C774.816772,663.585510 776.436646,660.649719 776.680359,658.328003 
	C777.773254,647.916687 778.320251,637.447998 779.226074,626.627380 
	C779.640198,622.840088 779.892273,619.425537 780.343445,615.655579 
	C781.038574,608.671997 781.366394,602.025330 782.086365,595.421509 
	C782.618469,590.540894 783.661560,585.716003 784.864624,580.865723 
	C786.730896,580.197693 788.217834,579.547852 789.686890,578.859863 
	C795.308838,576.226868 800.924988,573.581604 806.543335,570.940979 
	C806.220337,576.091614 805.897400,581.242310 805.333923,587.052368 
	C805.067383,588.136475 805.041321,588.561035 805.015259,588.985657 
	C804.865723,592.464905 804.716248,595.944092 804.326172,600.109863 
	C804.038513,601.452820 803.991455,602.109192 803.944336,602.765625 
	C802.921753,618.070679 801.890137,633.375183 800.888550,648.681641 
	C800.770081,650.491760 800.815857,652.312744 800.709229,654.955444 
	C800.034241,662.073486 798.862793,668.375977 798.985535,674.653015 
	C799.131042,682.096375 796.294800,687.103882 790.157349,691.139832 
	C778.334839,698.913940 766.905334,707.283447 755.138306,715.144775 
	C735.776306,728.080261 716.275330,740.807678 696.832947,753.622803 
	C695.948853,753.560669 695.064758,753.498474 693.880249,753.288086 
z"/>
<path fill="#DFDFDB" opacity="1.000000" stroke="none" 
	d="
M124.081696,409.322388 
	C125.726311,408.589966 127.476006,408.104767 129.250656,407.741547 
	C136.158020,406.327820 136.141510,406.452820 137.093491,413.534821 
	C137.921844,419.697113 141.736618,424.161133 146.548294,427.644958 
	C152.193161,431.731995 157.973923,435.679779 163.996353,439.169128 
	C165.952133,440.302246 170.020981,440.902008 171.057632,439.800934 
	C172.745575,438.008026 173.965622,434.211823 173.229156,431.967957 
	C169.917130,421.876953 165.667618,412.097565 162.154343,402.066376 
	C161.058640,398.937958 160.482498,395.264648 160.956314,392.029388 
	C161.789200,386.342438 165.553894,384.599304 170.765747,386.942993 
	C179.095520,390.688782 187.395157,394.510498 195.606506,398.507629 
	C201.559647,401.405579 205.577682,400.323639 209.174255,394.628540 
	C216.183884,383.528992 222.985260,372.278778 230.476242,361.510651 
	C234.103912,356.295929 239.099304,352.033478 243.467514,347.332489 
	C244.341751,346.391663 245.180161,345.417511 246.099487,344.096924 
	C247.801590,344.664307 249.439285,345.593506 251.422760,347.192810 
	C251.689407,352.110077 252.148331,356.452850 251.414322,360.583649 
	C250.064850,368.178040 247.557892,375.582977 246.475342,383.200714 
	C246.033966,386.306488 248.047272,389.761108 248.943771,393.057007 
	C248.943771,393.057007 248.938934,393.006409 248.914246,393.014801 
	C252.665665,397.656097 256.484100,402.255280 260.208496,406.929413 
	C266.718994,415.100098 264.860870,422.409515 255.143524,426.197906 
	C244.141769,430.487030 233.074188,434.612518 221.976807,438.648560 
	C217.656464,440.219879 214.558380,442.796539 212.652023,447.030243 
	C211.017303,450.660706 209.133575,454.193939 207.148071,457.648407 
	C203.004562,464.857483 197.413330,467.426514 189.557404,465.087311 
	C172.025162,459.866760 154.566864,454.393280 137.136185,448.841522 
	C134.690018,448.062408 132.568741,446.263184 130.156860,444.171936 
	C130.011719,435.877136 130.096100,428.344543 129.929993,420.817535 
	C129.894852,419.225586 128.943588,417.653809 128.414429,416.072754 
	C128.133698,415.490601 127.852982,414.908478 127.334274,414.102783 
	C126.130272,412.461365 125.164261,411.043488 124.081696,409.322388 
z"/>
<path fill="#FEBB0A" opacity="1.000000" stroke="none" 
	d="
M231.947342,528.936279 
	C232.943008,513.163269 233.938660,497.390137 234.931229,481.179810 
	C251.574265,474.997559 268.249969,469.336456 284.859497,463.487488 
	C309.014526,454.981415 333.133911,446.373413 357.231079,437.704926 
	C359.690125,436.820343 361.893646,435.225464 364.517029,433.782227 
	C371.887115,437.996063 374.147186,444.003693 372.248138,452.259521 
	C370.774292,458.666779 370.187866,465.342224 369.853394,471.931305 
	C369.432343,480.226227 365.571198,485.272461 357.452789,486.783325 
	C353.138458,487.586212 351.299469,490.006866 351.186554,494.116516 
	C351.290222,487.442322 346.772766,490.731140 344.658142,491.425995 
	C328.301483,496.800690 312.095917,502.633545 295.760742,508.075806 
	C274.529572,515.149231 253.222000,521.993408 231.947342,528.936279 
z"/>
<path fill="#FE4E26" opacity="1.000000" stroke="none" 
	d="
M689.198730,434.939484 
	C688.718384,444.352661 686.993530,445.757355 677.916565,444.284973 
	C628.156982,436.213531 578.395447,428.154449 528.633606,420.097198 
	C522.717773,419.139282 521.525940,417.833344 522.898315,412.231079 
	C530.124878,382.730957 544.135681,357.710144 570.848816,341.448822 
	C579.098206,336.427094 588.355774,334.287292 598.410828,333.834930 
	C629.162109,337.554626 659.493591,341.297363 689.826294,345.030670 
	C707.960510,347.262543 726.096497,349.479645 744.618896,351.823425 
	C739.592346,354.994934 734.178711,358.046417 728.139465,360.848633 
	C708.269897,358.051910 689.032898,355.449463 669.779724,352.973114 
	C651.992920,350.685364 634.197510,348.459656 616.388367,346.354248 
	C608.482117,345.419586 600.172546,343.009277 592.675293,344.478912 
	C574.813782,347.980103 563.196411,360.674896 552.555176,376.125580 
	C559.110474,376.934814 564.629211,377.562653 570.132507,378.304932 
	C591.365906,381.168915 612.587524,384.120270 633.826416,386.942627 
	C656.714355,389.984100 679.616638,392.917542 702.512695,395.898132 
	C700.878235,399.487122 699.243835,403.076141 696.944641,406.783478 
	C687.081482,405.593994 677.886108,404.264130 668.684021,402.982849 
	C647.968811,400.098541 627.255615,397.199127 606.531555,394.379700 
	C587.284485,391.761169 568.029724,389.195648 548.757446,386.773193 
	C547.519470,386.617645 545.366394,387.546173 544.887329,388.560120 
	C541.907532,394.867310 539.258667,401.332275 536.553894,407.767487 
	C535.338135,410.659912 536.840637,411.582367 539.518555,411.967682 
	C548.394897,413.244843 557.253174,414.649261 566.112732,416.041046 
	C593.676147,420.371063 621.229248,424.766968 648.802002,429.036835 
	C662.249756,431.119385 675.732056,432.979004 689.198730,434.939484 
z"/>
<path fill="#FEB909" opacity="1.000000" stroke="none" 
	d="
M700.016479,612.009766 
	C700.339722,598.659912 700.662903,585.309998 701.346680,571.432007 
	C717.936890,562.545776 734.166565,554.187805 750.396179,545.829834 
	C769.224854,535.839111 788.048035,525.837952 806.894226,515.880310 
	C808.200500,515.190125 809.677368,514.822876 811.384094,514.190125 
	C815.434875,516.077148 817.086548,519.133362 816.828613,523.425354 
	C816.341797,531.525879 816.026978,539.636963 815.662598,547.744629 
	C815.443176,552.627563 812.519714,555.557922 807.842773,557.881104 
	C799.533508,561.651672 791.918945,565.288086 783.912231,568.955688 
	C782.753418,569.302612 781.952026,569.553162 781.225464,569.943237 
	C762.171570,580.171997 743.115479,590.396729 724.096497,600.690125 
	C722.531555,601.537109 721.228149,602.867249 719.439575,603.993713 
	C717.242859,604.745361 715.396301,605.444458 713.579163,606.213074 
	C709.051147,608.128479 704.536499,610.075439 700.016479,612.009766 
z"/>
<path fill="#0652FD" opacity="1.000000" stroke="none" 
	d="
M213.589539,743.292847 
	C221.154358,744.197388 227.926514,742.682922 234.265640,739.549988 
	C261.768585,725.957520 289.226227,712.272827 316.652252,698.525757 
	C325.369568,694.156372 329.844421,686.769409 330.892578,677.181519 
	C331.198608,674.382080 331.560089,671.588806 331.984924,668.380249 
	C342.296326,671.820557 352.947815,674.838684 362.601593,679.798645 
	C369.911682,683.554504 368.151398,694.235840 360.140839,698.393555 
	C349.793945,703.763916 339.339935,708.935547 328.838531,713.998779 
	C306.196869,724.915344 283.431671,735.577209 260.839569,746.594543 
	C243.816284,754.896179 227.135910,754.005371 210.509216,745.704895 
	C209.663895,745.282959 208.999176,744.499329 208.129608,743.576416 
	C209.731995,743.319336 211.455124,743.369934 213.589539,743.292847 
z"/>
<path fill="#FFA608" opacity="1.000000" stroke="none" 
	d="
M231.606750,529.105957 
	C253.222000,521.993408 274.529572,515.149231 295.760742,508.075806 
	C312.095917,502.633545 328.301483,496.800690 344.658142,491.425995 
	C346.772766,490.731140 351.290222,487.442322 350.968201,494.415771 
	C350.908356,496.291901 350.860596,497.778503 350.569794,499.888977 
	C350.199982,500.800171 350.140594,501.100830 350.148621,501.414795 
	C350.102661,502.071655 350.056671,502.728516 349.879211,503.690918 
	C349.112854,504.159271 347.921600,504.328094 347.923279,504.484070 
	C347.997650,511.416992 341.966675,510.179871 338.155029,511.727936 
	C331.220825,514.544250 324.124420,516.972534 317.267334,519.956970 
	C316.061951,520.481567 315.694305,522.931030 314.938416,524.494446 
	C308.561127,521.526062 305.141510,522.780945 300.479919,529.317932 
	C299.693756,530.420410 297.469696,530.497498 295.566620,531.169617 
	C295.809906,531.941223 296.171387,533.087646 296.531799,534.230591 
	C291.332214,536.603271 287.176331,535.490051 283.624908,530.944397 
	C280.182037,533.400330 275.990662,534.549072 275.645599,540.113342 
	C275.545074,541.734985 272.005920,543.204834 269.954773,544.616150 
	C269.035126,545.248901 267.489960,545.277161 266.926270,546.073486 
	C263.077240,551.511292 257.429199,553.026245 251.395157,549.504944 
	C248.725479,547.946960 246.968613,548.025146 244.855179,550.181396 
	C243.899857,551.156067 242.192947,551.352539 241.079971,552.224731 
	C239.672287,553.328003 238.522430,554.760193 237.261429,556.050537 
	C238.849442,556.468201 240.437454,556.885742 243.186157,557.608521 
	C242.884125,558.540466 242.356674,560.168030 241.829224,561.795593 
	C239.559204,560.930908 236.735580,560.611450 235.185822,559.037537 
	C233.825974,557.656494 233.894684,554.868835 233.220688,552.271912 
	C230.637115,553.473694 229.329102,554.738464 230.966537,557.582092 
	C231.345734,558.240723 230.990250,559.322327 230.972839,560.209290 
	C230.087402,560.066162 229.159180,560.043335 228.328110,559.747559 
	C227.428802,559.427429 226.475113,558.299622 225.795273,558.478027 
	C221.086533,559.712830 220.680710,557.106445 221.719391,553.005981 
	C221.112762,552.962280 220.506149,552.918579 219.899521,552.874817 
	C219.267578,554.198730 218.348755,555.462646 218.057251,556.857605 
	C217.164444,561.130188 216.512497,565.453064 215.405014,569.871155 
	C215.028595,564.307922 215.014038,558.630005 214.997955,552.014893 
	C214.999435,544.724487 215.002441,538.371338 215.005447,532.018127 
	C220.425690,531.104004 225.845932,530.189819 231.606750,529.105957 
z"/>
<path fill="#0652FD" opacity="1.000000" stroke="none" 
	d="
M697.090210,753.955322 
	C716.275330,740.807678 735.776306,728.080261 755.138306,715.144775 
	C766.905334,707.283447 778.334839,698.913940 790.157349,691.139832 
	C796.294800,687.103882 799.131042,682.096375 798.985535,674.653015 
	C798.862793,668.375977 800.034241,662.073486 800.794678,655.406982 
	C810.853760,656.043335 819.488098,660.326172 827.287048,666.087830 
	C833.483154,670.665344 833.736633,681.780884 827.863098,687.547180 
	C824.230957,691.112915 819.910217,694.070190 815.601868,696.839050 
	C788.902161,713.997925 762.028687,730.887634 735.403198,748.159973 
	C723.475281,755.897766 710.888123,757.560791 697.090210,753.955322 
z"/>
<path fill="#FFAE08" opacity="1.000000" stroke="none" 
	d="
M214.601624,531.992615 
	C215.002441,538.371338 214.999435,544.724487 214.993042,551.548096 
	C197.217850,546.113953 179.394516,540.359253 161.686859,534.268250 
	C137.697891,526.016663 113.790901,517.526184 89.865395,509.090881 
	C85.490128,507.548340 81.194412,505.780121 76.512604,504.053955 
	C75.730789,499.948425 75.298340,495.904938 74.908577,491.418732 
	C78.407265,491.528320 81.992531,491.666412 85.298866,492.698242 
	C112.673080,501.241150 139.948517,510.102448 167.352264,518.548035 
	C182.871902,523.331055 198.576492,527.513977 214.601624,531.992615 
z"/>
<path fill="#288CFF" opacity="1.000000" stroke="none" 
	d="
M453.940521,763.116455 
	C450.731262,767.045654 447.168335,770.996033 443.576691,774.920105 
	C443.153656,775.382263 442.573120,775.700195 440.984772,776.904663 
	C440.984772,774.118103 440.984741,772.258423 440.984772,770.398804 
	C440.987152,569.189392 440.990173,367.979980 440.991455,166.770554 
	C440.991699,125.296104 441.023163,83.821533 440.899567,42.347443 
	C440.891083,39.496330 439.701660,36.648735 438.920959,33.437950 
	C443.550903,34.185776 442.919769,38.184147 442.946716,41.477734 
	C443.077606,57.475246 443.006195,73.474419 443.006226,89.473000 
	C443.006256,124.904831 443.006104,160.336655 443.006104,195.768494 
	C443.006104,224.987228 443.006287,254.205948 443.006287,283.424683 
	C443.006317,309.218536 443.006195,335.012390 443.006104,360.806244 
	C443.006042,370.583099 442.878113,380.362152 443.044250,390.136200 
	C443.191010,398.770691 443.930115,407.399841 443.923126,416.030945 
	C443.915680,425.162598 443.096344,434.292633 443.051575,443.425385 
	C442.922821,469.690674 443.002991,495.956940 443.007294,522.222839 
	C443.009796,537.569702 442.933899,552.917358 443.063354,568.263245 
	C443.156738,579.332520 443.694824,590.399109 443.724487,601.467651 
	C443.746216,609.567139 443.031250,617.669128 443.070831,625.767883 
	C443.111908,634.180054 443.974915,642.591431 443.926788,651.000061 
	C443.842621,665.703308 443.128998,680.403259 443.064240,695.106262 
	C442.996918,710.381287 443.490692,725.657898 443.536133,740.934448 
	C443.563232,750.042114 443.190216,759.150818 443.026611,768.259583 
	C443.010101,769.178528 443.197876,770.101135 443.329437,771.404114 
	C447.006165,768.435730 450.292175,765.782776 453.940521,763.116455 
z"/>
<path fill="#288CFF" opacity="1.000000" stroke="none" 
	d="
M437.888489,31.851685 
	C428.299500,26.188850 420.748901,33.606915 420.759064,42.906269 
	C421.023804,285.233185 420.970428,527.560486 420.971771,769.887695 
	C420.971802,771.818481 420.971741,773.749207 420.971741,777.198486 
	C417.653870,773.654358 415.340546,771.183228 412.892639,768.397583 
	C414.605194,769.030823 416.452301,769.978699 418.998779,771.285522 
	C418.998779,768.947327 418.998749,766.878601 418.998749,764.809875 
	C418.998749,523.978088 418.998383,283.146332 419.000031,42.314556 
	C419.000092,33.096188 424.954529,26.844482 432.852386,28.166290 
	C434.654602,28.467913 436.195923,30.328522 437.888489,31.851685 
z"/>
<path fill="#117FFF" opacity="1.000000" stroke="none" 
	d="
M103.362595,2.366900 
	C150.493713,2.083570 197.957840,2.006360 245.421967,2.004780 
	C416.632355,1.999081 587.842712,2.018854 759.520386,2.077208 
	C758.058655,2.417372 756.129639,2.964720 754.200500,2.965063 
	C539.179810,3.003263 324.159119,3.001608 109.138428,2.984077 
	C107.324150,2.983929 105.509880,2.738583 103.362595,2.366900 
z"/>
<path fill="#FFAE08" opacity="1.000000" stroke="none" 
	d="
M494.981628,568.442383 
	C503.846039,570.045349 512.697815,572.099548 521.883911,574.633179 
	C522.353943,579.097900 522.489685,583.083191 522.625366,587.068542 
	C514.009277,585.070862 505.393250,583.073120 496.391785,580.991455 
	C495.660583,576.902832 495.314789,572.898254 494.981628,568.442383 
z"/>
<path fill="#FEAB09" opacity="1.000000" stroke="none" 
	d="
M784.304443,568.924438 
	C791.918945,565.288086 799.533508,561.651672 807.517334,557.995789 
	C807.507324,562.047852 807.127930,566.119385 806.645996,570.565918 
	C800.924988,573.581604 795.308838,576.226868 789.686890,578.859863 
	C788.217834,579.547852 786.730896,580.197693 784.923462,580.633179 
	C784.627075,580.071838 784.741638,579.773987 784.857544,579.219727 
	C784.530029,578.628479 784.283203,578.325317 784.005005,577.569824 
	C784.083923,574.386475 784.194153,571.655518 784.304443,568.924438 
z"/>
<path fill="#288CFF" opacity="1.000000" stroke="none" 
	d="
M441.182190,806.913330 
	C450.008484,797.363770 459.188110,787.786865 468.664917,778.053528 
	C468.484833,779.246216 468.379944,780.959534 467.472076,781.887390 
	C459.502350,790.033203 451.396973,798.046570 443.298218,806.065186 
	C442.864655,806.494263 442.130005,806.619324 441.182190,806.913330 
z"/>
<path fill="#117FFF" opacity="1.000000" stroke="none" 
	d="
M248.944839,392.636322 
	C248.047272,389.761108 246.033966,386.306488 246.475342,383.200714 
	C247.557892,375.582977 250.064850,368.178040 251.414322,360.583649 
	C252.148331,356.452850 251.689407,352.110077 251.677124,347.471069 
	C256.204132,350.082458 254.073120,354.611786 253.534668,358.274963 
	C252.482727,365.431396 250.161896,372.396545 249.005829,379.544312 
	C248.339600,383.663574 248.924271,387.985138 248.944839,392.636322 
z"/>
<path fill="#288CFF" opacity="1.000000" stroke="none" 
	d="
M404.054688,789.197754 
	C410.045929,794.974243 416.031281,801.125305 422.162781,807.586426 
	C418.359070,804.584595 414.212708,801.474609 410.527802,797.890198 
	C408.032318,795.462830 406.185638,792.368469 404.054688,789.197754 
z"/>
<path fill="#288CFF" opacity="1.000000" stroke="none" 
	d="
M410.504211,765.115723 
	C408.965912,764.106323 407.566895,762.742004 406.171082,761.374573 
	C401.158569,756.463501 396.947662,756.072449 390.515961,760.101013 
	C390.974701,755.771118 394.793884,754.843567 397.990082,755.251770 
	C403.693268,755.980225 408.393768,758.975403 410.504211,765.115723 
z"/>
<path fill="#288CFF" opacity="1.000000" stroke="none" 
	d="
M389.881775,760.196411 
	C386.383881,767.398071 386.846344,770.662659 392.562195,776.586609 
	C394.060242,778.139221 395.540924,779.708618 397.175049,781.581238 
	C388.525146,778.914001 383.535095,768.485718 387.716736,761.729675 
	C388.108795,761.096191 388.904022,760.712219 389.881775,760.196411 
z"/>
<path fill="#288CFF" opacity="1.000000" stroke="none" 
	d="
M423.116516,809.099243 
	C427.502289,812.041992 432.182770,812.497986 437.538544,809.937073 
	C434.340302,815.499756 427.331543,815.335022 423.116516,809.099243 
z"/>
<path fill="#288CFF" opacity="1.000000" stroke="none" 
	d="
M470.891296,758.848572 
	C466.371399,756.710327 461.947845,756.357300 457.434631,760.162720 
	C459.567780,754.147827 466.635742,753.199585 470.891296,758.848572 
z"/>
<path fill="#288CFF" opacity="1.000000" stroke="none" 
	d="
M473.135132,773.875610 
	C475.126678,769.924744 475.789154,765.890198 472.922913,761.423218 
	C477.789215,764.194824 478.059143,769.216736 473.135132,773.875610 
z"/>
<path fill="#228BFC" opacity="1.000000" stroke="none" 
	d="
M72.733566,855.833191 
	C71.743401,855.964783 70.503822,855.829529 69.083237,855.364685 
	C70.096199,855.212158 71.290176,855.389282 72.733566,855.833191 
z"/>
<path fill="#228BFC" opacity="1.000000" stroke="none" 
	d="
M76.734375,856.827881 
	C75.746902,856.966858 74.511551,856.839783 73.098625,856.383667 
	C74.109528,856.223694 75.298012,856.392700 76.734375,856.827881 
z"/>
<path fill="#228BFC" opacity="1.000000" stroke="none" 
	d="
M79.743011,857.617249 
	C79.079010,857.775879 78.159431,857.730652 77.083168,857.369385 
	C77.780136,857.173340 78.633789,857.293396 79.743011,857.617249 
z"/>
<path fill="#FEAB09" opacity="1.000000" stroke="none" 
	d="
M804.104126,602.556763 
	C803.991455,602.109192 804.038513,601.452820 804.141968,600.556519 
	C804.220154,600.993652 804.242004,601.670776 804.104126,602.556763 
z"/>
<path fill="#288CFF" opacity="1.000000" stroke="none" 
	d="
M411.901245,766.840698 
	C411.503998,766.776917 411.066101,766.387207 410.536011,765.714905 
	C410.916016,765.793152 411.388306,766.153992 411.901245,766.840698 
z"/>
<path fill="#228BFC" opacity="1.000000" stroke="none" 
	d="
M791.808838,855.650024 
	C791.555481,855.879578 791.119202,855.941589 790.352112,856.032043 
	C790.556152,855.867859 791.091064,855.675171 791.808838,855.650024 
z"/>
<path fill="#FEAB09" opacity="1.000000" stroke="none" 
	d="
M805.174988,588.810852 
	C805.041321,588.561035 805.067383,588.136475 805.145935,587.505737 
	C805.280029,587.591309 805.385376,587.879333 805.432983,588.176514 
	C805.455994,588.320801 805.370911,588.482300 805.174988,588.810852 
z"/>
<path fill="#228BFC" opacity="1.000000" stroke="none" 
	d="
M67.856216,854.644165 
	C67.698433,854.725708 67.386894,854.631897 66.980423,854.286743 
	C67.194839,854.110107 67.467163,854.254578 67.856216,854.644165 
z"/>
<path fill="#FEBB0A" opacity="1.000000" stroke="none" 
	d="
M350.341980,501.255127 
	C350.140594,501.100830 350.199982,500.800171 350.449463,500.318207 
	C350.559845,500.447510 350.547577,500.771484 350.341980,501.255127 
z"/>
<path fill="#FFA608" opacity="1.000000" stroke="none" 
	d="
M215.030518,572.472534 
	C218.176514,575.254028 218.436386,579.762695 215.382019,583.898376 
	C215.033752,580.302063 215.026062,576.616821 215.030518,572.472534 
z"/>
<path fill="#FF9B08" opacity="1.000000" stroke="none" 
	d="
M702.737671,395.697968 
	C679.616638,392.917542 656.714355,389.984100 633.826416,386.942627 
	C612.587524,384.120270 591.365906,381.168915 570.132507,378.304932 
	C564.629211,377.562653 559.110474,376.934814 552.555176,376.125580 
	C563.196411,360.674896 574.813782,347.980103 592.675293,344.478912 
	C600.172546,343.009277 608.482117,345.419586 616.388367,346.354248 
	C634.197510,348.459656 651.992920,350.685364 669.779724,352.973114 
	C689.032898,355.449463 708.269897,358.051910 727.782349,360.914520 
	C725.136353,364.326935 721.806213,367.132935 719.390625,370.579742 
	C713.683289,378.723633 708.410889,387.172333 702.737671,395.697968 
z"/>
<path fill="#FF9B08" opacity="1.000000" stroke="none" 
	d="
M689.410095,434.642151 
	C675.732056,432.979004 662.249756,431.119385 648.802002,429.036835 
	C621.229248,424.766968 593.676147,420.371063 566.112732,416.041046 
	C557.253174,414.649261 548.394897,413.244843 539.518555,411.967682 
	C536.840637,411.582367 535.338135,410.659912 536.553894,407.767487 
	C539.258667,401.332275 541.907532,394.867310 544.887329,388.560120 
	C545.366394,387.546173 547.519470,386.617645 548.757446,386.773193 
	C568.029724,389.195648 587.284485,391.761169 606.531555,394.379700 
	C627.255615,397.199127 647.968811,400.098541 668.684021,402.982849 
	C677.886108,404.264130 687.081482,405.593994 696.684082,407.015259 
	C694.599304,416.200745 692.110352,425.272766 689.410095,434.642151 
z"/>
<path fill="#FEAB09" opacity="1.000000" stroke="none" 
	d="
M750.277222,545.546814 
	C734.166565,554.187805 717.936890,562.545776 701.339233,570.965332 
	C689.396423,568.875610 677.758484,567.014465 666.260376,564.511169 
	C644.034973,559.672546 621.892029,554.455811 599.707947,549.426636 
	C582.547363,545.536316 565.376038,541.692871 547.763977,537.733643 
	C547.507629,536.959045 547.696899,536.279236 548.226196,534.944702 
	C548.394226,530.558411 548.222229,526.826782 548.050171,523.095215 
	C547.995483,522.896301 547.940796,522.697327 548.200806,521.954468 
	C548.910461,520.080872 549.305420,518.751160 549.728760,517.325806 
	C561.367737,524.378296 570.618164,526.663879 584.660461,524.793579 
	C590.281677,524.044861 596.013000,522.250122 601.084106,519.712402 
	C607.582581,516.460510 607.666565,509.161194 601.987183,504.614929 
	C600.583435,503.491272 599.276367,502.246857 597.924866,501.057953 
	C597.907532,499.631409 597.890259,498.204895 598.315430,496.427460 
	C612.022339,504.845978 626.672668,505.660950 641.642883,502.820862 
	C646.823303,501.838043 651.642944,498.953308 656.627441,496.937317 
	C656.681702,499.713898 656.735901,502.490479 656.578918,505.873047 
	C656.450806,506.937866 656.533875,507.396667 656.616943,507.855438 
	C656.685120,508.987701 656.753296,510.119995 656.649414,511.766632 
	C656.380066,512.534302 656.434631,512.759766 656.640991,512.957397 
	C656.713989,515.993896 656.786926,519.030396 656.642517,522.538574 
	C656.425171,523.010254 656.015686,523.042908 655.634399,522.964050 
	C642.843140,518.712524 630.334534,518.734192 618.188232,523.342468 
	C614.935486,524.576538 611.610779,528.091492 610.297119,531.355530 
	C608.559082,535.673706 611.655212,539.704773 615.546936,541.575745 
	C630.862000,548.938538 646.491943,550.024841 661.915527,541.924438 
	C667.710144,538.881104 668.266235,532.884949 663.736328,528.259460 
	C662.232788,526.724243 660.501953,525.411560 658.896973,523.709045 
	C658.929199,523.228577 658.939453,523.036255 658.949707,522.843994 
	C658.912048,522.435486 658.874451,522.026917 659.153870,521.094727 
	C660.507935,520.101196 661.722107,519.042297 662.543579,519.289368 
	C664.056213,519.744263 665.262817,521.118103 666.728027,521.844910 
	C677.122925,527.001892 688.190063,526.853455 699.232666,525.272644 
	C703.299805,524.690430 707.135986,522.495239 711.443848,521.017944 
	C713.726624,520.624573 715.643066,520.248962 717.559570,519.873352 
	C717.651367,520.357971 717.743164,520.842529 717.523865,521.845581 
	C712.999939,524.878235 708.295959,526.841064 704.697693,530.045532 
	C700.139709,534.104919 701.120300,539.575806 706.184814,543.105652 
	C714.836731,549.135803 724.448792,548.580261 733.930908,546.354675 
	C739.052612,545.152527 743.808105,542.390015 748.695740,540.345337 
	C748.993958,541.675415 749.349792,543.262146 749.705566,544.848877 
	C749.856445,544.987183 750.007324,545.125488 750.277222,545.546814 
z"/>
<path fill="#FDD210" opacity="1.000000" stroke="none" 
	d="
M597.532349,501.182678 
	C599.276367,502.246857 600.583435,503.491272 601.987183,504.614929 
	C607.666565,509.161194 607.582581,516.460510 601.084106,519.712402 
	C596.013000,522.250122 590.281677,524.044861 584.660461,524.793579 
	C570.618164,526.663879 561.367737,524.378296 549.728760,517.325806 
	C549.305420,518.751160 548.910461,520.080872 548.282959,521.656006 
	C547.986450,519.748657 548.096558,517.573853 547.828308,515.446777 
	C546.698059,506.484070 550.309753,503.526733 558.049622,500.836823 
	C571.022949,496.328064 584.155396,497.189453 597.532349,501.182678 
z"/>
<path fill="#FDD210" opacity="1.000000" stroke="none" 
	d="
M656.717773,496.515564 
	C651.642944,498.953308 646.823303,501.838043 641.642883,502.820862 
	C626.672668,505.660950 612.022339,504.845978 598.408569,496.009430 
	C597.402039,487.015778 598.821716,484.053284 607.084961,481.284027 
	C621.276428,476.528076 635.499573,477.276917 649.473694,482.598450 
	C655.753723,484.989960 657.709656,489.776520 656.717773,496.515564 
z"/>
<path fill="#FDD20F" opacity="1.000000" stroke="none" 
	d="
M711.077576,521.035828 
	C707.135986,522.495239 703.299805,524.690430 699.232666,525.272644 
	C688.190063,526.853455 677.122925,527.001892 666.728027,521.844910 
	C665.262817,521.118103 664.056213,519.744263 662.543579,519.289368 
	C661.722107,519.042297 660.507935,520.101196 659.250244,520.800903 
	C658.093140,506.964508 661.469360,502.839630 675.559448,500.463409 
	C685.942932,498.712372 696.243164,499.050385 706.133545,502.576294 
	C710.026978,503.964294 713.305115,507.078094 716.937500,509.996124 
	C717.196411,511.038025 717.381165,511.489807 717.566040,511.941589 
	C717.632324,512.708008 717.698608,513.474426 717.354492,514.473755 
	C715.001282,511.116455 709.978699,509.519318 706.278015,511.662048 
	C704.687622,512.582886 702.990906,514.152588 702.500183,515.777100 
	C702.266785,516.549744 704.582214,518.411011 706.039001,519.286926 
	C707.530029,520.183411 709.383057,520.477844 711.077576,521.035828 
z"/>
<path fill="#FDD210" opacity="1.000000" stroke="none" 
	d="
M749.764038,544.399963 
	C749.349792,543.262146 748.993958,541.675415 748.695740,540.345337 
	C743.808105,542.390015 739.052612,545.152527 733.930908,546.354675 
	C724.448792,548.580261 714.836731,549.135803 706.184814,543.105652 
	C701.120300,539.575806 700.139709,534.104919 704.697693,530.045532 
	C708.295959,526.841064 712.999939,524.878235 717.531921,522.217712 
	C725.070679,522.385864 732.587158,521.537964 739.440186,523.287964 
	C749.633728,525.891052 751.154785,530.779419 750.010803,537.976929 
	C749.700500,539.928955 749.872070,541.957581 749.764038,544.399963 
z"/>
<path fill="#FDD210" opacity="1.000000" stroke="none" 
	d="
M711.443848,521.017944 
	C709.383057,520.477844 707.530029,520.183411 706.039001,519.286926 
	C704.582214,518.411011 702.266785,516.549744 702.500183,515.777100 
	C702.990906,514.152588 704.687622,512.582886 706.278015,511.662048 
	C709.978699,509.519318 715.001282,511.116455 717.258423,514.849060 
	C717.629150,516.355103 717.685669,517.718750 717.650879,519.477905 
	C715.643066,520.248962 713.726624,520.624573 711.443848,521.017944 
z"/>
<path fill="#FDD210" opacity="1.000000" stroke="none" 
	d="
M547.961304,523.538208 
	C548.222229,526.826782 548.394226,530.558411 548.316345,534.597046 
	C548.001709,531.263123 547.937012,527.622131 547.961304,523.538208 
z"/>
<path fill="#FDD210" opacity="1.000000" stroke="none" 
	d="
M658.608032,522.999146 
	C658.939453,523.036255 658.929199,523.228577 658.582336,523.708008 
	C657.502380,523.677673 656.759033,523.360291 656.015686,523.042908 
	C656.015686,523.042908 656.425171,523.010254 656.629395,522.993042 
	C657.311157,523.035339 657.788696,523.094849 658.608032,522.999146 
z"/>
<path fill="#FDD210" opacity="1.000000" stroke="none" 
	d="
M656.701965,507.579193 
	C656.533875,507.396667 656.450806,506.937866 656.481140,506.328308 
	C656.658691,506.552673 656.722839,506.927795 656.701965,507.579193 
z"/>
<path fill="#FDD210" opacity="1.000000" stroke="none" 
	d="
M717.649109,511.682495 
	C717.381165,511.489807 717.196411,511.038025 716.991577,510.339142 
	C717.225159,510.535828 717.478699,510.979614 717.649109,511.682495 
z"/>
<path fill="#FDD210" opacity="1.000000" stroke="none" 
	d="
M656.721191,512.739258 
	C656.434631,512.759766 656.380066,512.534302 656.556641,512.183838 
	C656.635925,512.086670 656.801331,512.521057 656.721191,512.739258 
z"/>
<path fill="#FF4F25" opacity="1.000000" stroke="none" 
	d="
M524.019592,574.923523 
	C535.109802,577.468628 546.195007,580.035583 557.293030,582.546021 
	C560.806030,583.340698 562.142822,585.477600 561.956604,588.992859 
	C561.782227,592.286011 561.915466,595.595337 561.506470,599.327148 
	C551.735352,597.372314 542.371155,594.988037 533.077515,592.621643 
	C533.077515,601.332520 533.311584,608.968018 532.991089,616.580261 
	C532.793762,621.267273 534.436279,623.310730 539.099060,624.360352 
	C582.699280,634.174377 626.249573,644.210632 669.814331,654.182556 
	C669.839294,657.788269 669.864319,661.394043 669.472168,665.520996 
	C667.567566,665.918274 666.035645,665.982239 664.599548,665.641968 
	C643.391968,660.616638 622.192688,655.555908 601.000488,650.466187 
	C580.458313,645.532776 559.900635,640.658997 539.409973,635.519226 
	C534.871399,634.380920 533.692749,635.777405 534.040833,640.029968 
	C534.501587,645.659180 535.176392,651.333984 534.884155,656.943604 
	C534.600891,662.380981 536.815247,664.580322 541.833679,665.826660 
	C564.441467,671.441162 586.972656,677.363770 609.540894,683.138367 
	C629.521362,688.250916 649.514343,693.314697 669.501709,698.400024 
	C669.573608,699.226685 669.694641,700.052307 669.709656,700.879944 
	C669.854248,708.845093 668.265930,710.174927 660.669189,708.128174 
	C618.994568,696.900696 577.330811,685.632935 535.266541,673.888794 
	C533.879578,673.327637 532.889343,673.256592 531.899170,673.185669 
	C531.072205,673.022400 530.245178,672.859192 529.139221,672.103333 
	C528.240417,664.335510 527.714600,657.150085 526.932373,649.992676 
	C526.745544,648.283203 525.703613,646.667114 525.054932,645.008118 
	C525.021240,644.557068 524.987549,644.105957 525.250305,642.994568 
	C525.686951,635.061768 525.890808,627.789246 525.880737,620.516968 
	C525.879517,619.679138 524.686279,618.843079 524.045654,618.006165 
	C524.000488,617.255127 523.955261,616.504028 524.216003,615.057739 
	C524.682983,612.572021 525.019104,610.777283 524.976318,608.991638 
	C524.703979,597.634460 524.348022,586.279358 524.019592,574.923523 
z"/>
<path fill="#FF9A08" opacity="1.000000" stroke="none" 
	d="
M669.629639,697.908691 
	C649.514343,693.314697 629.521362,688.250916 609.540894,683.138367 
	C586.972656,677.363770 564.441467,671.441162 541.833679,665.826660 
	C536.815247,664.580322 534.600891,662.380981 534.884155,656.943604 
	C535.176392,651.333984 534.501587,645.659180 534.040833,640.029968 
	C533.692749,635.777405 534.871399,634.380920 539.409973,635.519226 
	C559.900635,640.658997 580.458313,645.532776 601.000488,650.466187 
	C622.192688,655.555908 643.391968,660.616638 664.599548,665.641968 
	C666.035645,665.982239 667.567566,665.918274 669.469482,665.972778 
	C669.841858,676.408020 669.799683,686.912720 669.629639,697.908691 
z"/>
<path fill="#FF9908" opacity="1.000000" stroke="none" 
	d="
M669.864990,653.700867 
	C626.249573,644.210632 582.699280,634.174377 539.099060,624.360352 
	C534.436279,623.310730 532.793762,621.267273 532.991089,616.580261 
	C533.311584,608.968018 533.077515,601.332520 533.077515,592.621643 
	C542.371155,594.988037 551.735352,597.372314 561.460083,599.778137 
	C563.377625,607.649963 565.106567,615.388550 570.876587,621.527527 
	C578.905334,630.069580 588.512451,633.488342 600.798828,631.275024 
	C614.989990,633.779175 625.285339,629.397461 631.312195,618.104309 
	C633.421875,614.151062 635.611816,613.568726 639.594971,614.614197 
	C649.657471,617.255554 659.823181,619.504028 669.966248,622.189148 
	C669.997314,622.654602 670.009644,622.840759 670.021973,623.026917 
	C669.986572,633.091003 669.951172,643.155090 669.864990,653.700867 
z"/>
<path fill="#FEAC08" opacity="1.000000" stroke="none" 
	d="
M670.439697,623.012024 
	C670.009644,622.840759 669.997314,622.654602 669.985718,621.735352 
	C669.942566,617.035156 669.898682,613.067993 669.854736,609.100830 
	C677.142639,610.453308 684.404297,611.985168 691.733154,613.057434 
	C694.181274,613.415527 696.801147,612.598816 699.679504,612.164490 
	C704.536499,610.075439 709.051147,608.128479 713.579163,606.213074 
	C715.396301,605.444458 717.242859,604.745361 719.500549,604.456238 
	C719.711060,609.589172 719.496948,614.280457 719.282837,618.971680 
	C712.755615,622.281311 706.228394,625.590942 699.344604,628.953979 
	C689.611084,627.003967 680.234253,625.000549 670.439697,623.012024 
z"/>
<path fill="#FE4A29" opacity="1.000000" stroke="none" 
	d="
M523.847168,574.779053 
	C524.348022,586.279358 524.703979,597.634460 524.976318,608.991638 
	C525.019104,610.777283 524.682983,612.572021 524.256714,614.682983 
	C523.603455,605.995361 523.215454,596.987244 522.726440,587.523804 
	C522.489685,583.083191 522.353943,579.097900 522.304565,574.724121 
	C522.818787,574.435303 523.246704,574.534973 523.847168,574.779053 
z"/>
<path fill="#FE4A29" opacity="1.000000" stroke="none" 
	d="
M525.011719,645.474060 
	C525.703613,646.667114 526.745544,648.283203 526.932373,649.992676 
	C527.714600,657.150085 528.240417,664.335510 528.874084,671.928101 
	C523.914612,669.546936 525.840637,664.384521 525.154053,660.324280 
	C524.364075,655.652649 524.969177,650.745117 525.011719,645.474060 
z"/>
<path fill="#FE4A29" opacity="1.000000" stroke="none" 
	d="
M524.008362,618.471680 
	C524.686279,618.843079 525.879517,619.679138 525.880737,620.516968 
	C525.890808,627.789246 525.686951,635.061768 525.290039,642.656982 
	C524.679199,634.965515 524.325134,626.951294 524.008362,618.471680 
z"/>
<path fill="#FE4A29" opacity="1.000000" stroke="none" 
	d="
M532.174500,673.361694 
	C532.889343,673.256592 533.879578,673.327637 534.937012,673.718262 
	C534.152771,673.871094 533.301331,673.704407 532.174500,673.361694 
z"/>
<path fill="#FF4F25" opacity="1.000000" stroke="none" 
	d="
M669.488892,608.998413 
	C669.898682,613.067993 669.942566,617.035156 669.967041,621.456116 
	C659.823181,619.504028 649.657471,617.255554 639.594971,614.614197 
	C635.611816,613.568726 633.421875,614.151062 631.312195,618.104309 
	C625.285339,629.397461 614.989990,633.779175 601.209106,631.249512 
	C613.681152,626.695679 619.267212,617.055725 621.093323,604.382812 
	C622.107727,597.343018 622.333435,597.371582 629.370117,599.103516 
	C642.621704,602.365051 655.872070,605.631531 669.488892,608.998413 
z"/>
<path fill="#FF4F25" opacity="1.000000" stroke="none" 
	d="
M601.419312,607.262573 
	C599.626038,614.682190 596.939819,617.694641 592.203247,617.895081 
	C586.472961,618.137573 579.583008,613.556519 578.294922,607.698425 
	C577.430420,603.766235 577.316040,599.402405 578.033142,595.443115 
	C579.649048,586.522034 588.504944,583.775146 595.398499,589.787659 
	C600.574707,594.302246 602.332764,600.148499 601.419312,607.262573 
z"/>
<path fill="#FDF8CA" opacity="1.000000" stroke="none" 
	d="
M128.469421,416.471405 
	C128.943588,417.653809 129.894852,419.225586 129.929993,420.817535 
	C130.096100,428.344543 130.011719,435.877136 130.081131,443.852051 
	C129.379715,441.732910 128.014847,439.180939 127.965164,436.603638 
	C127.838493,430.031799 128.298904,423.448669 128.469421,416.471405 
z"/>
<path fill="#FF4C26" opacity="1.000000" stroke="none" 
	d="
M778.786255,388.288544 
	C792.772949,385.739624 800.364807,394.198364 803.965881,403.473969 
	C808.155945,414.266479 808.420166,425.565704 807.842041,436.916748 
	C807.618896,441.297424 804.692566,443.231293 800.636230,443.845947 
	C787.333191,445.861786 774.031494,447.886871 760.733032,449.932678 
	C757.122131,450.488220 753.531982,451.180511 749.918762,451.718506 
	C745.373352,452.395264 742.535706,450.456116 743.182434,446.183350 
	C746.312988,425.501129 752.990784,406.440826 770.025818,392.745697 
	C772.423401,390.818207 775.574402,389.827789 778.786255,388.288544 
z"/>
<path fill="#FF4C26" opacity="1.000000" stroke="none" 
	d="
M719.280762,619.443298 
	C719.496948,614.280457 719.711060,609.589172 719.864136,604.435364 
	C721.228149,602.867249 722.531555,601.537109 724.096497,600.690125 
	C743.115479,590.396729 762.171570,580.171997 781.225464,569.943237 
	C781.952026,569.553162 782.753418,569.302612 783.912231,568.955750 
	C784.194153,571.655518 784.083923,574.386475 784.068176,577.863647 
	C784.421204,578.909058 784.679749,579.208374 784.938293,579.507690 
	C784.741638,579.773987 784.627075,580.071838 784.535828,580.633728 
	C783.661560,585.716003 782.618469,590.540894 782.086365,595.421509 
	C781.366394,602.025330 781.038574,608.671997 780.020508,615.797607 
	C763.544495,625.424866 747.756165,634.864563 731.551575,643.525574 
	C725.436401,646.794006 722.600708,650.640564 724.079041,658.152649 
	C733.751038,652.645142 743.206360,647.240540 752.681763,641.871338 
	C761.464722,636.894470 770.269165,631.955627 779.064148,627.000000 
	C778.320251,637.447998 777.773254,647.916687 776.680359,658.328003 
	C776.436646,660.649719 774.816772,663.585510 772.909485,664.855591 
	C755.585022,676.391907 738.057922,687.623840 720.579529,698.928650 
	C720.045105,699.274353 719.396973,699.444275 717.532471,700.233337 
	C717.386353,696.174194 717.072266,692.727783 717.169495,689.292969 
	C717.823792,666.165588 718.565369,643.040588 719.280762,619.443298 
z"/>
<path fill="#FF390E" opacity="1.000000" stroke="none" 
	d="
M779.226074,626.627319 
	C770.269165,631.955627 761.464722,636.894470 752.681763,641.871338 
	C743.206360,647.240540 733.751038,652.645142 724.079041,658.152649 
	C722.600708,650.640564 725.436401,646.794006 731.551575,643.525574 
	C747.756165,634.864563 763.544495,625.424866 779.821411,616.152954 
	C779.892273,619.425537 779.640198,622.840088 779.226074,626.627319 
z"/>
<path fill="#FEB509" opacity="1.000000" stroke="none" 
	d="
M784.857544,579.219727 
	C784.679749,579.208374 784.421204,578.909058 784.099487,578.315918 
	C784.283203,578.325317 784.530029,578.628479 784.857544,579.219727 
z"/>
<path fill="#FFD10E" opacity="1.000000" stroke="none" 
	d="
M655.634399,522.964050 
	C656.759033,523.360291 657.502380,523.677673 658.560425,523.996094 
	C660.501953,525.411560 662.232788,526.724243 663.736328,528.259460 
	C668.266235,532.884949 667.710144,538.881104 661.915527,541.924438 
	C646.491943,550.024841 630.862000,548.938538 615.546936,541.575745 
	C611.655212,539.704773 608.559082,535.673706 610.297119,531.355530 
	C611.610779,528.091492 614.935486,524.576538 618.188232,523.342468 
	C630.334534,518.734192 642.843140,518.712524 655.634399,522.964050 
z"/>
</svg>